<svg width="21" height="22" viewBox="0 0 21 22" fill="none" xmlns="http://www.w3.org/2000/svg">
<path d="M10.6795 5.63232C9.27494 5.63232 7.92789 6.19029 6.9347 7.18348C5.94151 8.17667 5.38354 9.52372 5.38354 10.9283C5.38354 12.3329 5.94151 13.6799 6.9347 14.6731C7.92789 15.6663 9.27494 16.2243 10.6795 16.2243C12.0841 16.2243 13.4312 15.6663 14.4243 14.6731C15.4175 13.6799 15.9755 12.3329 15.9755 10.9283C15.9755 9.52372 15.4175 8.17667 14.4243 7.18348C13.4312 6.19029 12.0841 5.63232 10.6795 5.63232V5.63232ZM10.6795 14.3677C9.76703 14.3677 8.89191 14.0052 8.24669 13.36C7.60146 12.7148 7.23897 11.8396 7.23897 10.9272C7.23897 10.0147 7.60146 9.13955 8.24669 8.49432C8.89191 7.84909 9.76703 7.4866 10.6795 7.4866C11.592 7.4866 12.4671 7.84909 13.1124 8.49432C13.7576 9.13955 14.1201 10.0147 14.1201 10.9272C14.1201 11.8396 13.7576 12.7148 13.1124 13.36C12.4671 14.0052 11.592 14.3677 10.6795 14.3677V14.3677Z" fill="white"/>
<path d="M16.1851 6.67244C16.867 6.67244 17.4198 6.11967 17.4198 5.43778C17.4198 4.7559 16.867 4.20312 16.1851 4.20312C15.5032 4.20312 14.9504 4.7559 14.9504 5.43778C14.9504 6.11967 15.5032 6.67244 16.1851 6.67244Z" fill="white"/>
<path d="M20.4537 4.18238C20.1885 3.49768 19.7834 2.87589 19.2641 2.3568C18.7448 1.83771 18.1228 1.43276 17.438 1.16788C16.6367 0.867072 15.7901 0.704418 14.9344 0.686847C13.8314 0.638744 13.4821 0.625 10.6852 0.625C7.88833 0.625 7.52984 0.625 6.43606 0.686847C5.58094 0.70352 4.73497 0.866207 3.93467 1.16788C3.24969 1.43246 2.62758 1.83729 2.10826 2.35642C1.58893 2.87555 1.18386 3.4975 0.919029 4.18238C0.618158 4.98366 0.455877 5.83031 0.439138 6.68606C0.389889 7.78786 0.375 8.13718 0.375 10.9352C0.375 13.7321 0.375 14.0883 0.439138 15.1844C0.456318 16.0411 0.617809 16.8863 0.919029 17.6892C1.1846 18.3738 1.59007 18.9955 2.10952 19.5146C2.62897 20.0336 3.25098 20.4386 3.93581 20.7037C4.7346 21.0166 5.58092 21.1909 6.43835 21.2191C7.54129 21.2672 7.89062 21.2821 10.6875 21.2821C13.4844 21.2821 13.8429 21.2821 14.9367 21.2191C15.7923 21.2017 16.6389 21.0394 17.4403 20.7392C18.125 20.4737 18.7467 20.0684 19.2659 19.5492C19.7852 19.0299 20.1905 18.4082 20.456 17.7235C20.7572 16.9218 20.9187 16.0766 20.9359 15.2199C20.9851 14.1181 21 13.7687 21 10.9707C21 8.17269 21 7.81764 20.9359 6.72156C20.9225 5.85372 20.7594 4.9947 20.4537 4.18238V4.18238ZM19.0587 15.0996C19.0513 15.7597 18.9308 16.4136 18.7025 17.0329C18.5305 17.4783 18.2672 17.8827 17.9295 18.2202C17.5918 18.5577 17.1872 18.8208 16.7417 18.9926C16.1292 19.2199 15.4822 19.3403 14.829 19.3488C13.7409 19.3992 13.434 19.4118 10.644 19.4118C7.85168 19.4118 7.56649 19.4118 6.45782 19.3488C5.8049 19.3408 5.15825 19.2203 4.54627 18.9926C4.09924 18.8219 3.69301 18.5593 3.35386 18.2217C3.01472 17.8842 2.75021 17.4791 2.57746 17.0329C2.35234 16.4202 2.23193 15.774 2.22126 15.1214C2.17201 14.0333 2.16056 13.7264 2.16056 10.9364C2.16056 8.1452 2.16056 7.86001 2.22126 6.75019C2.22867 6.09051 2.34914 5.43699 2.57746 4.81803C2.92678 3.91437 3.64261 3.20312 4.54627 2.85724C5.15855 2.63062 5.80501 2.51016 6.45782 2.50104C7.54702 2.45179 7.85282 2.43805 10.644 2.43805C13.4351 2.43805 13.7215 2.43805 14.829 2.50104C15.4823 2.5089 16.1293 2.6294 16.7417 2.85724C17.1871 3.02935 17.5917 3.29269 17.9294 3.63037C18.267 3.96804 18.5304 4.37258 18.7025 4.81803C18.9276 5.43072 19.048 6.07693 19.0587 6.72958C19.1079 7.81878 19.1205 8.12458 19.1205 10.9157C19.1205 13.7057 19.1205 14.0058 19.0713 15.1008H19.0587V15.0996Z" fill="white"/>
</svg>
