<svg width="19" height="19" viewBox="0 0 19 19" fill="none" xmlns="http://www.w3.org/2000/svg">
<path d="M17.8061 14.4395L15.793 13.0973L14.0034 11.9045C13.658 11.6747 13.1938 11.75 12.9389 12.0773L11.8315 13.5009C11.5936 13.8098 11.1657 13.8986 10.8246 13.7097C10.0732 13.2917 9.18462 12.8982 7.22408 10.9351C5.26355 8.97209 4.86749 8.08605 4.44951 7.33465C4.26065 6.99353 4.34942 6.56562 4.65834 6.32778L6.08194 5.2204C6.4092 4.96547 6.48456 4.50131 6.25477 4.1559L5.09855 2.42139L3.71971 0.353109C3.48503 0.00106474 3.01523 -0.104627 2.65241 0.112963L1.06221 1.06695C0.632463 1.32015 0.31656 1.72901 0.179941 2.20877C-0.254918 3.79424 -0.342591 7.29174 5.26259 12.8969C10.8678 18.5021 14.3649 18.4141 15.9504 17.9792C16.4302 17.8427 16.839 17.5268 17.0922 17.097L18.0462 15.5068C18.2638 15.144 18.1582 14.6742 17.8061 14.4395Z" fill="white"/>
<path d="M10.3317 2.81757C13.2699 2.82084 15.651 5.20187 15.6542 8.14005C15.6542 8.31295 15.7944 8.45315 15.9673 8.45315C16.1402 8.45315 16.2804 8.31298 16.2804 8.14005C16.2768 4.85621 13.6156 2.19502 10.3318 2.19141C10.1589 2.19141 10.0187 2.33157 10.0187 2.50451C10.0186 2.67737 10.1588 2.81757 10.3317 2.81757Z" fill="white"/>
<path d="M10.3318 4.69652C12.2329 4.69875 13.7735 6.23936 13.7757 8.14045C13.7757 8.31335 13.9159 8.45355 14.0888 8.45355C14.2617 8.45355 14.4019 8.31339 14.4019 8.14045C14.3993 5.89366 12.5786 4.0729 10.3318 4.07031C10.1589 4.07031 10.0187 4.21048 10.0187 4.38341C10.0187 4.55635 10.1588 4.69652 10.3318 4.69652Z" fill="white"/>
<path d="M10.3317 6.5749C11.1959 6.57593 11.8961 7.27618 11.8972 8.14033C11.8972 8.31323 12.0373 8.45343 12.2103 8.45343C12.3832 8.45343 12.5234 8.31327 12.5234 8.14033C12.522 6.93052 11.5416 5.95011 10.3318 5.94873C10.1589 5.94873 10.0187 6.0889 10.0187 6.26183C10.0186 6.43473 10.1588 6.5749 10.3317 6.5749Z" fill="white"/>
</svg>
