<svg width="21" height="23" viewBox="0 0 21 23" fill="none" xmlns="http://www.w3.org/2000/svg">
<path d="M18.5114 2.51752C17.9657 2.01479 15.7571 0.412052 10.8329 0.390567C10.8329 0.390567 5.02779 0.0425203 2.20045 2.63783C0.62779 4.21049 0.073493 6.51791 0.0133367 9.37533C-0.0468195 12.2328 -0.119866 17.5867 5.04068 19.039H5.04498L5.04068 21.2562C5.04068 21.2562 5.00631 22.1542 5.59927 22.3347C6.31256 22.5581 6.73365 21.8749 7.41685 21.1402C7.79068 20.7363 8.30631 20.1433 8.69732 19.6921C12.2294 19.9886 14.9407 19.3097 15.2501 19.2109C15.9633 18.9788 19.9981 18.4632 20.6512 13.1093C21.3301 7.58353 20.3247 4.09447 18.5114 2.51752V2.51752ZM19.1086 12.7054C18.5544 17.1742 15.2844 17.4578 14.6829 17.6511C14.4251 17.7328 12.0403 18.3257 9.04537 18.1324C9.04537 18.1324 6.81099 20.8265 6.1149 21.5269C5.88716 21.7546 5.63795 21.7331 5.64224 21.282C5.64224 20.9855 5.65943 17.5996 5.65943 17.5996C5.65513 17.5996 5.65513 17.5996 5.65943 17.5996C1.28521 16.3878 1.54302 11.8288 1.59029 9.44408C1.63756 7.05932 2.08873 5.10424 3.42076 3.7894C5.81412 1.61947 10.7426 1.94174 10.7426 1.94174C14.9063 1.95893 16.9001 3.21361 17.3641 3.63471C18.8981 4.94955 19.6801 8.09486 19.1086 12.7054V12.7054ZM13.136 9.23354C13.1532 9.60307 12.5989 9.62885 12.5817 9.25932C12.5344 8.31401 12.0919 7.85424 11.1809 7.80268C10.8114 7.78119 10.8458 7.2269 11.211 7.24838C12.4098 7.31283 13.0758 8.00033 13.136 9.23354ZM14.0083 9.71908C14.0512 7.89721 12.9126 6.47065 10.7512 6.31166C10.386 6.28588 10.4247 5.73158 10.7899 5.75736C13.2821 5.93783 14.6098 7.65229 14.5626 9.73197C14.5583 10.1015 13.9997 10.0843 14.0083 9.71908V9.71908ZM16.0278 10.2949C16.0321 10.6644 15.4735 10.6687 15.4735 10.2992C15.4477 6.79721 13.1145 4.8894 10.2829 4.86791C9.91763 4.86361 9.91763 4.31361 10.2829 4.31361C13.4497 4.3351 15.9977 6.52221 16.0278 10.2949V10.2949ZM15.5422 14.5101V14.5187C15.0782 15.3351 14.2102 16.2374 13.3165 15.9496L13.3079 15.9367C12.4012 15.6831 10.2657 14.5831 8.91646 13.5089C8.22037 12.9589 7.58443 12.3101 7.09459 11.6871C6.65201 11.1328 6.20513 10.4753 5.77115 9.68471C4.85591 8.03041 4.65396 7.29135 4.65396 7.29135C4.36607 6.3976 5.26412 5.52963 6.08482 5.06557H6.09341C6.48873 4.85932 6.86685 4.92807 7.12037 5.23315C7.12037 5.23315 7.65318 5.86908 7.88091 6.18275C8.09576 6.47494 8.38365 6.9433 8.53404 7.20541C8.79615 7.67377 8.63287 8.15072 8.37506 8.34838L7.85943 8.76088C7.59732 8.97143 7.6317 9.36244 7.6317 9.36244C7.6317 9.36244 8.39654 12.2542 11.254 12.9847C11.254 12.9847 11.645 13.0191 11.8555 12.757L12.268 12.2413C12.4657 11.9835 12.9426 11.8203 13.411 12.0824C14.0426 12.439 14.8462 12.9933 15.379 13.496C15.6797 13.741 15.7485 14.1148 15.5422 14.5101Z" fill="white"/>
</svg>
