<svg width="21" height="16" viewBox="0 0 21 16" fill="none" xmlns="http://www.w3.org/2000/svg">
<path d="M21 8.16441C21 8.11377 21 8.05622 20.9977 7.98947C20.9954 7.80301 20.9908 7.59354 20.9862 7.37026C20.9678 6.72803 20.9355 6.0881 20.8849 5.485C20.8158 4.65402 20.7146 3.96115 20.5765 3.44092C20.4307 2.89801 20.145 2.40287 19.7479 2.00499C19.3509 1.6071 18.8563 1.3204 18.3137 1.17355C17.6622 0.998605 16.387 0.890416 14.5915 0.823661C13.7375 0.791434 12.8237 0.770717 11.9098 0.759207C11.5898 0.754604 11.2929 0.752302 11.0259 0.75H10.3491C10.0821 0.752302 9.78516 0.754604 9.46519 0.759207C8.55134 0.770717 7.63749 0.791434 6.78348 0.823661C4.988 0.892718 3.71045 1.00091 3.06131 1.17355C2.51853 1.32004 2.02378 1.60662 1.62664 2.00456C1.22951 2.4025 0.943937 2.89784 0.798549 3.44092C0.658133 3.96115 0.559152 4.65402 0.490095 5.485C0.439453 6.0881 0.407227 6.72803 0.388811 7.37026C0.381906 7.59354 0.379604 7.80301 0.377302 7.98947C0.377302 8.05622 0.375 8.11377 0.375 8.16441V8.29332C0.375 8.34396 0.375 8.40151 0.377302 8.46826C0.379604 8.65472 0.384208 8.86419 0.388811 9.08747C0.407227 9.7297 0.439453 10.3696 0.490095 10.9727C0.559152 11.8037 0.660435 12.4966 0.798549 13.0168C1.09319 14.1194 1.95871 14.9895 3.06131 15.2842C3.71045 15.4591 4.988 15.5673 6.78348 15.6341C7.63749 15.6663 8.55134 15.687 9.46519 15.6985C9.78516 15.7031 10.0821 15.7054 10.3491 15.7077H11.0259C11.2929 15.7054 11.5898 15.7031 11.9098 15.6985C12.8237 15.687 13.7375 15.6663 14.5915 15.6341C16.387 15.565 17.6646 15.4568 18.3137 15.2842C19.4163 14.9895 20.2818 14.1217 20.5765 13.0168C20.7169 12.4966 20.8158 11.8037 20.8849 10.9727C20.9355 10.3696 20.9678 9.7297 20.9862 9.08747C20.9931 8.86419 20.9954 8.65472 20.9977 8.46826C20.9977 8.40151 21 8.34396 21 8.29332V8.16441V8.16441ZM19.3426 8.28411C19.3426 8.33245 19.3426 8.38539 19.3403 8.44754C19.338 8.62709 19.3334 8.82506 19.3288 9.03913C19.3127 9.65144 19.2805 10.2637 19.2321 10.8323C19.17 11.5735 19.0825 12.1812 18.9743 12.5887C18.8316 13.1204 18.4127 13.5416 17.8832 13.6821C17.3998 13.811 16.1821 13.9146 14.5271 13.9767C13.6892 14.0089 12.7868 14.0296 11.8868 14.0412C11.5714 14.0458 11.2791 14.0481 11.0167 14.0481H10.3583L9.48821 14.0412C8.58817 14.0296 7.68813 14.0089 6.84794 13.9767C5.19287 13.9122 3.97287 13.811 3.49177 13.6821C2.96233 13.5393 2.54339 13.1204 2.40067 12.5887C2.29248 12.1812 2.20501 11.5735 2.14286 10.8323C2.09452 10.2637 2.06459 9.65144 2.04618 9.03913C2.03927 8.82506 2.03697 8.62479 2.03467 8.44754C2.03467 8.38539 2.03237 8.33015 2.03237 8.28411V8.17362C2.03237 8.12528 2.03237 8.07234 2.03467 8.01018C2.03697 7.83064 2.04157 7.63267 2.04618 7.4186C2.06229 6.80629 2.09452 6.19399 2.14286 5.62542C2.20501 4.88421 2.29248 4.27651 2.40067 3.86907C2.54339 3.33733 2.96233 2.91609 3.49177 2.77567C3.97517 2.64676 5.19287 2.54318 6.84794 2.48103C7.68583 2.4488 8.58817 2.42808 9.48821 2.41657C9.80357 2.41197 10.0959 2.40967 10.3583 2.40967H11.0167L11.8868 2.41657C12.7868 2.42808 13.6869 2.4488 14.5271 2.48103C16.1821 2.54548 17.4021 2.64676 17.8832 2.77567C18.4127 2.91839 18.8316 3.33733 18.9743 3.86907C19.0825 4.27651 19.17 4.88421 19.2321 5.62542C19.2805 6.19399 19.3104 6.80629 19.3288 7.4186C19.3357 7.63267 19.338 7.83294 19.3403 8.01018C19.3403 8.07234 19.3426 8.12758 19.3426 8.17362V8.28411ZM8.63881 11.3134L13.9792 8.20585L8.63881 5.14432V11.3134Z" fill="white"/>
</svg>
