<svg width="179" height="79" viewBox="0 0 179 79" fill="none" xmlns="http://www.w3.org/2000/svg">
<path d="M169.657 0H0V66.1625H169.657V0Z" fill="white"/>
<path d="M44.2583 37.0316C44.2583 41.7223 40.5701 44.191 33.6855 44.191H19.9163V17.7754H32.702C39.3407 17.7754 42.783 20.491 42.783 24.6879C42.783 27.4035 41.3077 29.3785 39.3407 30.6129C42.2913 31.6004 44.2583 33.8223 44.2583 37.0316ZM26.0632 22.466V28.6379H32.2102C35.1608 28.6379 36.8819 27.6504 36.8819 25.4285C36.8819 23.2066 35.1608 22.2191 32.2102 22.2191H26.0632V22.466ZM38.1113 36.5379C38.1113 34.316 36.3902 33.3285 33.1937 33.3285H26.0632V39.7473H33.1937C36.3902 39.7473 38.1113 38.7598 38.1113 36.5379Z" fill="#101820"/>
<path d="M73.5179 38.7598H61.2239L59.011 44.191H52.864L64.6662 17.7754H70.5673L82.3695 44.191H75.9766L73.5179 38.7598ZM71.7967 34.0691L67.6168 23.9473L63.4368 34.0691H71.7967Z" fill="#101820"/>
<path d="M90.4836 41.7221L92.4507 37.0314C94.6636 38.7596 97.86 39.7471 101.056 39.7471C104.745 39.7471 106.22 38.5127 106.22 37.0314C106.22 32.0939 90.9754 35.5502 90.9754 25.6752C90.9754 21.2314 94.6636 17.5283 102.04 17.5283C105.236 17.5283 108.679 18.2689 111.137 19.7502L109.17 24.4408C106.712 22.9596 104.253 22.4658 101.794 22.4658C98.1059 22.4658 96.8765 23.9471 96.8765 25.4283C96.8765 30.3658 112.121 26.9096 112.121 36.5377C112.121 40.9814 108.433 44.6846 101.056 44.6846C97.1224 44.6846 92.9424 43.4502 90.4836 41.7221Z" fill="#101820"/>
<path d="M141.381 38.7595H129.087L126.874 44.4376H120.727L132.529 18.022H138.43L150.232 44.4376H143.839L141.381 38.7595ZM139.659 34.0688L135.479 23.947L131.299 34.0688H139.659Z" fill="#101820"/>
<path d="M179 53.3252H94.4177V79.0002H179V53.3252Z" fill="#FFA400"/>
<path d="M110.154 66.6561C110.154 62.9529 112.858 60.2373 116.793 60.2373C118.76 60.2373 120.235 60.9779 121.464 62.2123L120.727 62.9529C119.743 61.9654 118.514 61.4717 117.038 61.4717C114.088 61.4717 111.629 63.6936 111.629 66.6561C111.629 69.6186 113.842 71.8404 117.038 71.8404C118.514 71.8404 119.743 71.3467 120.727 70.3592L121.464 71.0998C120.235 72.3342 118.76 73.0748 116.793 73.0748C113.104 73.0748 110.154 70.3592 110.154 66.6561Z" fill="white"/>
<path d="M127.857 60.2373H129.087V73.0748H127.857V60.2373Z" fill="white"/>
<path d="M139.413 61.4717H134.988V60.2373H145.314V61.4717H140.889V73.0748H139.659V61.4717H139.413Z" fill="white"/>
<path d="M155.396 68.6311V73.0748H154.166V68.6311L149.003 60.2373H150.478L154.904 67.3967L159.33 60.2373H160.559L155.396 68.6311Z" fill="white"/>
</svg>
